<mxfile host="app.diagrams.net" agent="Mozilla/5.0 (X11; Ubuntu; Linux x86_64; rv:136.0) Gecko/20100101 Firefox/136.0" version="26.1.0">
  <diagram name="Page-1" id="Bed-eWaJXdRQISmTCw9B">
    <mxGraphModel dx="2898" dy="1151" grid="1" gridSize="10" guides="1" tooltips="1" connect="1" arrows="1" fold="1" page="1" pageScale="1" pageWidth="1400" pageHeight="850" math="0" shadow="0">
      <root>
        <mxCell id="0" />
        <mxCell id="1" parent="0" />
        <mxCell id="6l5RSFHwxLsTZtFq_D9o-2" value="Hint applicable" style="strokeWidth=1;html=1;shape=mxgraph.flowchart.decision;whiteSpace=wrap;rounded=0;fillColor=#fff2cc;strokeColor=#d6b656;textShadow=1;" parent="1" vertex="1">
          <mxGeometry x="-695" y="186" width="152" height="70" as="geometry" />
        </mxCell>
        <mxCell id="6l5RSFHwxLsTZtFq_D9o-3" value="Use join operator from hint" style="rounded=0;whiteSpace=wrap;html=1;absoluteArcSize=1;arcSize=14;strokeWidth=1;fillColor=#d5e8d4;strokeColor=#82b366;textShadow=1;" parent="1" vertex="1">
          <mxGeometry x="-483" y="201" width="230" height="40" as="geometry" />
        </mxCell>
        <mxCell id="6l5RSFHwxLsTZtFq_D9o-4" value="Equi-join" style="strokeWidth=2;html=1;shape=mxgraph.flowchart.decision;whiteSpace=wrap;rounded=0;fillColor=#dae8fc;strokeColor=#6c8ebf;textShadow=1;" parent="1" vertex="1">
          <mxGeometry x="-864" y="71" width="152" height="70" as="geometry" />
        </mxCell>
        <mxCell id="6l5RSFHwxLsTZtFq_D9o-5" value="" style="endArrow=classic;html=1;rounded=0;exitX=1;exitY=0.5;exitDx=0;exitDy=0;exitPerimeter=0;entryX=0.5;entryY=0;entryDx=0;entryDy=0;entryPerimeter=0;edgeStyle=orthogonalEdgeStyle;strokeColor=#FF6666;textShadow=1;" parent="1" source="6l5RSFHwxLsTZtFq_D9o-4" target="6l5RSFHwxLsTZtFq_D9o-2" edge="1">
          <mxGeometry width="50" height="50" relative="1" as="geometry">
            <mxPoint x="-853" y="560" as="sourcePoint" />
            <mxPoint x="-803" y="510" as="targetPoint" />
          </mxGeometry>
        </mxCell>
        <mxCell id="6l5RSFHwxLsTZtFq_D9o-27" value="Yes" style="edgeLabel;html=1;align=center;verticalAlign=middle;resizable=0;points=[];rounded=0;fontColor=#006600;textShadow=0;" parent="6l5RSFHwxLsTZtFq_D9o-5" vertex="1" connectable="0">
          <mxGeometry x="-0.4286" y="2" relative="1" as="geometry">
            <mxPoint x="-4" y="-11" as="offset" />
          </mxGeometry>
        </mxCell>
        <mxCell id="6l5RSFHwxLsTZtFq_D9o-6" value="" style="endArrow=classic;html=1;rounded=0;exitX=1;exitY=0.5;exitDx=0;exitDy=0;exitPerimeter=0;entryX=0;entryY=0.5;entryDx=0;entryDy=0;strokeColor=#006600;textShadow=1;" parent="1" source="6l5RSFHwxLsTZtFq_D9o-2" target="6l5RSFHwxLsTZtFq_D9o-3" edge="1">
          <mxGeometry width="50" height="50" relative="1" as="geometry">
            <mxPoint x="-853" y="560" as="sourcePoint" />
            <mxPoint x="-803" y="510" as="targetPoint" />
          </mxGeometry>
        </mxCell>
        <mxCell id="6l5RSFHwxLsTZtFq_D9o-31" value="Text" style="edgeLabel;html=1;align=center;verticalAlign=middle;resizable=0;points=[];rounded=0;textShadow=1;" parent="6l5RSFHwxLsTZtFq_D9o-6" vertex="1" connectable="0">
          <mxGeometry x="-0.2333" relative="1" as="geometry">
            <mxPoint x="3" y="-11" as="offset" />
          </mxGeometry>
        </mxCell>
        <mxCell id="6l5RSFHwxLsTZtFq_D9o-33" value="&lt;div&gt;Yes&lt;/div&gt;" style="edgeLabel;html=1;align=center;verticalAlign=middle;resizable=0;points=[];rounded=0;fontColor=#006600;textShadow=0;" parent="6l5RSFHwxLsTZtFq_D9o-6" vertex="1" connectable="0">
          <mxGeometry x="-0.1333" y="9" relative="1" as="geometry">
            <mxPoint as="offset" />
          </mxGeometry>
        </mxCell>
        <mxCell id="6l5RSFHwxLsTZtFq_D9o-10" style="edgeStyle=orthogonalEdgeStyle;rounded=0;orthogonalLoop=1;jettySize=auto;html=1;exitX=1;exitY=0.5;exitDx=0;exitDy=0;exitPerimeter=0;entryX=0;entryY=0.5;entryDx=0;entryDy=0;fontColor=#006600;strokeColor=#006600;textShadow=1;" parent="1" source="6l5RSFHwxLsTZtFq_D9o-7" target="6l5RSFHwxLsTZtFq_D9o-8" edge="1">
          <mxGeometry relative="1" as="geometry" />
        </mxCell>
        <mxCell id="6l5RSFHwxLsTZtFq_D9o-35" value="Yes" style="edgeLabel;html=1;align=center;verticalAlign=middle;resizable=0;points=[];rounded=0;fontColor=#006600;textShadow=0;" parent="6l5RSFHwxLsTZtFq_D9o-10" vertex="1" connectable="0">
          <mxGeometry x="-0.1333" relative="1" as="geometry">
            <mxPoint y="-8" as="offset" />
          </mxGeometry>
        </mxCell>
        <mxCell id="6l5RSFHwxLsTZtFq_D9o-7" value="Able to broadcast" style="strokeWidth=1;html=1;shape=mxgraph.flowchart.decision;whiteSpace=wrap;rounded=0;fillColor=#ffcc99;strokeColor=#36393d;textShadow=1;" parent="1" vertex="1">
          <mxGeometry x="-695" y="313" width="152" height="70" as="geometry" />
        </mxCell>
        <mxCell id="6l5RSFHwxLsTZtFq_D9o-8" value="Broadcast Hash Join" style="rounded=0;whiteSpace=wrap;html=1;absoluteArcSize=1;arcSize=14;strokeWidth=1;fillColor=#ffcc99;strokeColor=#36393d;textShadow=1;" parent="1" vertex="1">
          <mxGeometry x="-483" y="328" width="230" height="40" as="geometry" />
        </mxCell>
        <mxCell id="6l5RSFHwxLsTZtFq_D9o-9" value="" style="endArrow=classic;html=1;rounded=0;exitX=0.5;exitY=1;exitDx=0;exitDy=0;exitPerimeter=0;strokeColor=#FF6666;textShadow=1;" parent="1" source="6l5RSFHwxLsTZtFq_D9o-2" target="6l5RSFHwxLsTZtFq_D9o-7" edge="1">
          <mxGeometry width="50" height="50" relative="1" as="geometry">
            <mxPoint x="-853" y="560" as="sourcePoint" />
            <mxPoint x="-803" y="510" as="targetPoint" />
          </mxGeometry>
        </mxCell>
        <mxCell id="6l5RSFHwxLsTZtFq_D9o-34" value="No" style="edgeLabel;html=1;align=center;verticalAlign=middle;resizable=0;points=[];rounded=0;fontColor=#FF6666;textShadow=0;" parent="6l5RSFHwxLsTZtFq_D9o-9" vertex="1" connectable="0">
          <mxGeometry x="0.1228" y="2" relative="1" as="geometry">
            <mxPoint x="-16" as="offset" />
          </mxGeometry>
        </mxCell>
        <mxCell id="6l5RSFHwxLsTZtFq_D9o-24" style="edgeStyle=orthogonalEdgeStyle;rounded=0;orthogonalLoop=1;jettySize=auto;html=1;exitX=0.5;exitY=1;exitDx=0;exitDy=0;exitPerimeter=0;strokeColor=#006600;textShadow=1;" parent="1" source="6l5RSFHwxLsTZtFq_D9o-11" edge="1">
          <mxGeometry relative="1" as="geometry">
            <mxPoint x="-619" y="603" as="targetPoint" />
          </mxGeometry>
        </mxCell>
        <mxCell id="6l5RSFHwxLsTZtFq_D9o-37" value="Yes" style="edgeLabel;html=1;align=center;verticalAlign=middle;resizable=0;points=[];rounded=0;fontColor=#006600;textShadow=0;" parent="6l5RSFHwxLsTZtFq_D9o-24" vertex="1" connectable="0">
          <mxGeometry x="-0.4917" y="-2" relative="1" as="geometry">
            <mxPoint x="-12" y="14" as="offset" />
          </mxGeometry>
        </mxCell>
        <mxCell id="6l5RSFHwxLsTZtFq_D9o-11" value="Prefer SortMerge Join" style="strokeWidth=1;html=1;shape=mxgraph.flowchart.decision;whiteSpace=wrap;rounded=0;fillColor=#e3c800;fontColor=#000000;strokeColor=#B09500;textShadow=1;" parent="1" vertex="1">
          <mxGeometry x="-695" y="443" width="152" height="70" as="geometry" />
        </mxCell>
        <mxCell id="6l5RSFHwxLsTZtFq_D9o-12" value="Shuffle Hash Join" style="rounded=0;whiteSpace=wrap;html=1;absoluteArcSize=1;arcSize=14;strokeWidth=1;fillColor=#e3c800;fontColor=#000000;strokeColor=#B09500;textShadow=1;" parent="1" vertex="1">
          <mxGeometry x="-483" y="458" width="230" height="40" as="geometry" />
        </mxCell>
        <mxCell id="6l5RSFHwxLsTZtFq_D9o-13" style="edgeStyle=orthogonalEdgeStyle;rounded=0;orthogonalLoop=1;jettySize=auto;html=1;exitX=0.5;exitY=1;exitDx=0;exitDy=0;exitPerimeter=0;entryX=0.5;entryY=0;entryDx=0;entryDy=0;entryPerimeter=0;strokeColor=#FF6666;textShadow=1;" parent="1" source="6l5RSFHwxLsTZtFq_D9o-7" target="6l5RSFHwxLsTZtFq_D9o-11" edge="1">
          <mxGeometry relative="1" as="geometry" />
        </mxCell>
        <mxCell id="6l5RSFHwxLsTZtFq_D9o-36" value="No" style="edgeLabel;html=1;align=center;verticalAlign=middle;resizable=0;points=[];rounded=0;fontColor=#FF6666;textShadow=0;" parent="6l5RSFHwxLsTZtFq_D9o-13" vertex="1" connectable="0">
          <mxGeometry x="0.0333" y="2" relative="1" as="geometry">
            <mxPoint x="-16" as="offset" />
          </mxGeometry>
        </mxCell>
        <mxCell id="6l5RSFHwxLsTZtFq_D9o-19" style="edgeStyle=orthogonalEdgeStyle;rounded=0;orthogonalLoop=1;jettySize=auto;html=1;exitX=1;exitY=0.5;exitDx=0;exitDy=0;exitPerimeter=0;strokeColor=#006600;textShadow=1;" parent="1" source="6l5RSFHwxLsTZtFq_D9o-14" target="6l5RSFHwxLsTZtFq_D9o-15" edge="1">
          <mxGeometry relative="1" as="geometry" />
        </mxCell>
        <mxCell id="6l5RSFHwxLsTZtFq_D9o-40" value="Yes" style="edgeLabel;html=1;align=center;verticalAlign=middle;resizable=0;points=[];rounded=0;fontColor=#006600;textShadow=0;" parent="6l5RSFHwxLsTZtFq_D9o-19" vertex="1" connectable="0">
          <mxGeometry x="-0.1333" y="-1" relative="1" as="geometry">
            <mxPoint x="-1" y="-10" as="offset" />
          </mxGeometry>
        </mxCell>
        <mxCell id="6l5RSFHwxLsTZtFq_D9o-14" value="Rows Sortable" style="strokeWidth=1;html=1;shape=mxgraph.flowchart.decision;whiteSpace=wrap;rounded=0;fillColor=#b1ddf0;strokeColor=#10739e;textShadow=1;" parent="1" vertex="1">
          <mxGeometry x="-695" y="609" width="152" height="70" as="geometry" />
        </mxCell>
        <mxCell id="6l5RSFHwxLsTZtFq_D9o-15" value="Sort Merge Join" style="rounded=0;whiteSpace=wrap;html=1;absoluteArcSize=1;arcSize=14;strokeWidth=1;fillColor=#b1ddf0;strokeColor=#10739e;textShadow=1;" parent="1" vertex="1">
          <mxGeometry x="-483" y="624" width="230" height="40" as="geometry" />
        </mxCell>
        <mxCell id="6l5RSFHwxLsTZtFq_D9o-20" style="edgeStyle=orthogonalEdgeStyle;rounded=0;orthogonalLoop=1;jettySize=auto;html=1;exitX=1;exitY=0.5;exitDx=0;exitDy=0;exitPerimeter=0;entryX=0;entryY=0.5;entryDx=0;entryDy=0;strokeColor=#006600;textShadow=1;" parent="1" source="6l5RSFHwxLsTZtFq_D9o-16" target="6l5RSFHwxLsTZtFq_D9o-17" edge="1">
          <mxGeometry relative="1" as="geometry" />
        </mxCell>
        <mxCell id="6l5RSFHwxLsTZtFq_D9o-41" value="Yes" style="edgeLabel;html=1;align=center;verticalAlign=middle;resizable=0;points=[];rounded=0;fontColor=#006600;textShadow=0;" parent="6l5RSFHwxLsTZtFq_D9o-20" vertex="1" connectable="0">
          <mxGeometry x="-0.1" y="-1" relative="1" as="geometry">
            <mxPoint y="-11" as="offset" />
          </mxGeometry>
        </mxCell>
        <mxCell id="6l5RSFHwxLsTZtFq_D9o-45" style="edgeStyle=orthogonalEdgeStyle;rounded=0;orthogonalLoop=1;jettySize=auto;html=1;exitX=0;exitY=0.5;exitDx=0;exitDy=0;exitPerimeter=0;entryX=1;entryY=0.5;entryDx=0;entryDy=0;strokeColor=#FF6666;textShadow=1;" parent="1" source="6l5RSFHwxLsTZtFq_D9o-16" target="6l5RSFHwxLsTZtFq_D9o-44" edge="1">
          <mxGeometry relative="1" as="geometry" />
        </mxCell>
        <mxCell id="6l5RSFHwxLsTZtFq_D9o-46" value="No" style="edgeLabel;html=1;align=center;verticalAlign=middle;resizable=0;points=[];fontColor=#FF6666;textShadow=0;" parent="6l5RSFHwxLsTZtFq_D9o-45" vertex="1" connectable="0">
          <mxGeometry x="-0.4167" y="4" relative="1" as="geometry">
            <mxPoint x="-10" y="-14" as="offset" />
          </mxGeometry>
        </mxCell>
        <mxCell id="6l5RSFHwxLsTZtFq_D9o-16" value="Inner Join like" style="strokeWidth=1;html=1;shape=mxgraph.flowchart.decision;whiteSpace=wrap;rounded=0;fillColor=#f5f5f5;strokeColor=#666666;gradientColor=#b3b3b3;textShadow=1;" parent="1" vertex="1">
          <mxGeometry x="-695" y="725" width="152" height="70" as="geometry" />
        </mxCell>
        <mxCell id="6l5RSFHwxLsTZtFq_D9o-17" value="Cartesian Product" style="rounded=0;whiteSpace=wrap;html=1;absoluteArcSize=1;arcSize=14;strokeWidth=1;fillColor=#f5f5f5;strokeColor=#666666;gradientColor=#b3b3b3;textShadow=1;" parent="1" vertex="1">
          <mxGeometry x="-483" y="740" width="230" height="40" as="geometry" />
        </mxCell>
        <mxCell id="6l5RSFHwxLsTZtFq_D9o-22" style="edgeStyle=orthogonalEdgeStyle;rounded=0;orthogonalLoop=1;jettySize=auto;html=1;exitX=1;exitY=0.5;exitDx=0;exitDy=0;exitPerimeter=0;entryX=0.5;entryY=1;entryDx=0;entryDy=0;strokeColor=#006600;textShadow=1;" parent="1" source="6l5RSFHwxLsTZtFq_D9o-18" target="6l5RSFHwxLsTZtFq_D9o-12" edge="1">
          <mxGeometry relative="1" as="geometry" />
        </mxCell>
        <mxCell id="6l5RSFHwxLsTZtFq_D9o-42" value="Yes" style="edgeLabel;html=1;align=center;verticalAlign=middle;resizable=0;points=[];rounded=0;fontColor=#006600;textShadow=0;" parent="6l5RSFHwxLsTZtFq_D9o-22" vertex="1" connectable="0">
          <mxGeometry x="0.2239" y="-4" relative="1" as="geometry">
            <mxPoint x="11" as="offset" />
          </mxGeometry>
        </mxCell>
        <mxCell id="6l5RSFHwxLsTZtFq_D9o-18" value="Local Hash Possible" style="strokeWidth=1;html=1;shape=mxgraph.flowchart.decision;whiteSpace=wrap;rounded=0;fillColor=#ffff88;strokeColor=#36393d;textShadow=1;" parent="1" vertex="1">
          <mxGeometry x="-584" y="531" width="152" height="70" as="geometry" />
        </mxCell>
        <mxCell id="6l5RSFHwxLsTZtFq_D9o-21" style="edgeStyle=orthogonalEdgeStyle;rounded=0;orthogonalLoop=1;jettySize=auto;html=1;exitX=1;exitY=0.5;exitDx=0;exitDy=0;exitPerimeter=0;entryX=0.5;entryY=0;entryDx=0;entryDy=0;entryPerimeter=0;strokeColor=#FF6666;textShadow=1;" parent="1" source="6l5RSFHwxLsTZtFq_D9o-11" target="6l5RSFHwxLsTZtFq_D9o-18" edge="1">
          <mxGeometry relative="1" as="geometry" />
        </mxCell>
        <mxCell id="6l5RSFHwxLsTZtFq_D9o-43" value="No" style="edgeLabel;html=1;align=center;verticalAlign=middle;resizable=0;points=[];fontColor=#FF6666;textShadow=0;" parent="6l5RSFHwxLsTZtFq_D9o-21" vertex="1" connectable="0">
          <mxGeometry x="-0.6667" y="2" relative="1" as="geometry">
            <mxPoint x="5" y="-6" as="offset" />
          </mxGeometry>
        </mxCell>
        <mxCell id="6l5RSFHwxLsTZtFq_D9o-23" style="edgeStyle=orthogonalEdgeStyle;rounded=0;orthogonalLoop=1;jettySize=auto;html=1;exitX=0;exitY=0.5;exitDx=0;exitDy=0;exitPerimeter=0;entryX=0.5;entryY=0;entryDx=0;entryDy=0;entryPerimeter=0;strokeColor=#FF6666;textShadow=1;" parent="1" source="6l5RSFHwxLsTZtFq_D9o-18" target="6l5RSFHwxLsTZtFq_D9o-14" edge="1">
          <mxGeometry relative="1" as="geometry" />
        </mxCell>
        <mxCell id="6l5RSFHwxLsTZtFq_D9o-38" value="No" style="edgeLabel;html=1;align=center;verticalAlign=middle;resizable=0;points=[];rounded=0;fontColor=#FF6666;textShadow=0;" parent="6l5RSFHwxLsTZtFq_D9o-23" vertex="1" connectable="0">
          <mxGeometry x="-0.5556" y="4" relative="1" as="geometry">
            <mxPoint y="3" as="offset" />
          </mxGeometry>
        </mxCell>
        <mxCell id="6l5RSFHwxLsTZtFq_D9o-25" style="edgeStyle=orthogonalEdgeStyle;rounded=0;orthogonalLoop=1;jettySize=auto;html=1;exitX=0.5;exitY=1;exitDx=0;exitDy=0;exitPerimeter=0;entryX=0.5;entryY=0;entryDx=0;entryDy=0;entryPerimeter=0;textShadow=1;" parent="1" source="6l5RSFHwxLsTZtFq_D9o-14" target="6l5RSFHwxLsTZtFq_D9o-16" edge="1">
          <mxGeometry relative="1" as="geometry" />
        </mxCell>
        <mxCell id="6l5RSFHwxLsTZtFq_D9o-39" value="No" style="edgeLabel;html=1;align=center;verticalAlign=middle;resizable=0;points=[];rounded=0;textShadow=0;" parent="6l5RSFHwxLsTZtFq_D9o-25" vertex="1" connectable="0">
          <mxGeometry x="-0.2" y="1" relative="1" as="geometry">
            <mxPoint x="-15" y="5" as="offset" />
          </mxGeometry>
        </mxCell>
        <mxCell id="6l5RSFHwxLsTZtFq_D9o-44" value="Broadcast Nested Loop Join" style="rounded=0;whiteSpace=wrap;html=1;absoluteArcSize=1;arcSize=14;strokeWidth=1;fillColor=#e51400;strokeColor=#B20000;fontColor=#ffffff;textShadow=1;" parent="1" vertex="1">
          <mxGeometry x="-973" y="740" width="230" height="40" as="geometry" />
        </mxCell>
        <mxCell id="6l5RSFHwxLsTZtFq_D9o-54" style="edgeStyle=orthogonalEdgeStyle;rounded=0;orthogonalLoop=1;jettySize=auto;html=1;exitX=0;exitY=0.5;exitDx=0;exitDy=0;exitPerimeter=0;entryX=1;entryY=0.5;entryDx=0;entryDy=0;strokeColor=#006600;textShadow=1;" parent="1" source="6l5RSFHwxLsTZtFq_D9o-47" target="6l5RSFHwxLsTZtFq_D9o-48" edge="1">
          <mxGeometry relative="1" as="geometry" />
        </mxCell>
        <mxCell id="6l5RSFHwxLsTZtFq_D9o-66" value="Yes" style="edgeLabel;html=1;align=center;verticalAlign=middle;resizable=0;points=[];fontColor=#006600;textShadow=0;" parent="6l5RSFHwxLsTZtFq_D9o-54" vertex="1" connectable="0">
          <mxGeometry x="-0.0909" relative="1" as="geometry">
            <mxPoint x="-6" y="-11" as="offset" />
          </mxGeometry>
        </mxCell>
        <mxCell id="6l5RSFHwxLsTZtFq_D9o-47" value="Hint applicable" style="strokeWidth=1;html=1;shape=mxgraph.flowchart.decision;whiteSpace=wrap;rounded=0;fillColor=#fff2cc;strokeColor=#d6b656;textShadow=1;" parent="1" vertex="1">
          <mxGeometry x="-1053" y="186" width="152" height="70" as="geometry" />
        </mxCell>
        <mxCell id="6l5RSFHwxLsTZtFq_D9o-48" value="Use join operator from hint" style="rounded=0;whiteSpace=wrap;html=1;absoluteArcSize=1;arcSize=14;strokeWidth=1;fillColor=#d5e8d4;strokeColor=#82b366;textShadow=1;" parent="1" vertex="1">
          <mxGeometry x="-1360" y="201" width="230" height="40" as="geometry" />
        </mxCell>
        <mxCell id="6l5RSFHwxLsTZtFq_D9o-53" style="edgeStyle=orthogonalEdgeStyle;rounded=0;orthogonalLoop=1;jettySize=auto;html=1;exitX=0;exitY=0.5;exitDx=0;exitDy=0;exitPerimeter=0;entryX=0.5;entryY=0;entryDx=0;entryDy=0;entryPerimeter=0;strokeColor=#006600;textShadow=1;" parent="1" source="6l5RSFHwxLsTZtFq_D9o-4" target="6l5RSFHwxLsTZtFq_D9o-47" edge="1">
          <mxGeometry relative="1" as="geometry" />
        </mxCell>
        <mxCell id="6l5RSFHwxLsTZtFq_D9o-65" value="No" style="edgeLabel;html=1;align=center;verticalAlign=middle;resizable=0;points=[];fontColor=#006600;textShadow=0;" parent="6l5RSFHwxLsTZtFq_D9o-53" vertex="1" connectable="0">
          <mxGeometry x="-0.4646" y="1" relative="1" as="geometry">
            <mxPoint x="-1" y="-13" as="offset" />
          </mxGeometry>
        </mxCell>
        <mxCell id="6l5RSFHwxLsTZtFq_D9o-57" style="edgeStyle=orthogonalEdgeStyle;rounded=0;orthogonalLoop=1;jettySize=auto;html=1;exitX=0;exitY=0.5;exitDx=0;exitDy=0;exitPerimeter=0;entryX=1;entryY=0.5;entryDx=0;entryDy=0;strokeColor=#006600;textShadow=1;" parent="1" source="6l5RSFHwxLsTZtFq_D9o-55" target="6l5RSFHwxLsTZtFq_D9o-56" edge="1">
          <mxGeometry relative="1" as="geometry" />
        </mxCell>
        <mxCell id="6l5RSFHwxLsTZtFq_D9o-67" value="Yes" style="edgeLabel;html=1;align=center;verticalAlign=middle;resizable=0;points=[];fontColor=#006600;textShadow=0;" parent="6l5RSFHwxLsTZtFq_D9o-57" vertex="1" connectable="0">
          <mxGeometry x="-0.039" y="-3" relative="1" as="geometry">
            <mxPoint x="-2" y="-5" as="offset" />
          </mxGeometry>
        </mxCell>
        <mxCell id="6l5RSFHwxLsTZtFq_D9o-55" value="Able to broadcast" style="strokeWidth=1;html=1;shape=mxgraph.flowchart.decision;whiteSpace=wrap;rounded=0;fillColor=#ffcc99;strokeColor=#36393d;textShadow=1;" parent="1" vertex="1">
          <mxGeometry x="-1053" y="313" width="152" height="70" as="geometry" />
        </mxCell>
        <mxCell id="6l5RSFHwxLsTZtFq_D9o-56" value="Broadcast Hash Join" style="rounded=0;whiteSpace=wrap;html=1;absoluteArcSize=1;arcSize=14;strokeWidth=1;fillColor=#ffcc99;strokeColor=#36393d;textShadow=1;" parent="1" vertex="1">
          <mxGeometry x="-1360" y="328" width="230" height="40" as="geometry" />
        </mxCell>
        <mxCell id="6l5RSFHwxLsTZtFq_D9o-58" style="edgeStyle=orthogonalEdgeStyle;rounded=0;orthogonalLoop=1;jettySize=auto;html=1;exitX=0.5;exitY=1;exitDx=0;exitDy=0;exitPerimeter=0;entryX=0.5;entryY=0;entryDx=0;entryDy=0;entryPerimeter=0;strokeColor=#FF6666;textShadow=1;" parent="1" source="6l5RSFHwxLsTZtFq_D9o-47" target="6l5RSFHwxLsTZtFq_D9o-55" edge="1">
          <mxGeometry relative="1" as="geometry" />
        </mxCell>
        <mxCell id="6l5RSFHwxLsTZtFq_D9o-69" value="No" style="edgeLabel;html=1;align=center;verticalAlign=middle;resizable=0;points=[];fontColor=#FF6666;textShadow=0;" parent="6l5RSFHwxLsTZtFq_D9o-58" vertex="1" connectable="0">
          <mxGeometry x="-0.0175" relative="1" as="geometry">
            <mxPoint x="9" as="offset" />
          </mxGeometry>
        </mxCell>
        <mxCell id="6l5RSFHwxLsTZtFq_D9o-61" style="edgeStyle=orthogonalEdgeStyle;rounded=0;orthogonalLoop=1;jettySize=auto;html=1;exitX=0;exitY=0.5;exitDx=0;exitDy=0;exitPerimeter=0;entryX=1;entryY=0.5;entryDx=0;entryDy=0;strokeColor=#006600;textShadow=1;" parent="1" source="6l5RSFHwxLsTZtFq_D9o-59" target="6l5RSFHwxLsTZtFq_D9o-60" edge="1">
          <mxGeometry relative="1" as="geometry" />
        </mxCell>
        <mxCell id="6l5RSFHwxLsTZtFq_D9o-68" value="Yes" style="edgeLabel;html=1;align=center;verticalAlign=middle;resizable=0;points=[];fontColor=#006600;textShadow=0;" parent="6l5RSFHwxLsTZtFq_D9o-61" vertex="1" connectable="0">
          <mxGeometry x="0.0909" y="1" relative="1" as="geometry">
            <mxPoint x="3" y="-9" as="offset" />
          </mxGeometry>
        </mxCell>
        <mxCell id="6l5RSFHwxLsTZtFq_D9o-64" style="edgeStyle=orthogonalEdgeStyle;rounded=0;orthogonalLoop=1;jettySize=auto;html=1;exitX=0.5;exitY=1;exitDx=0;exitDy=0;exitPerimeter=0;entryX=0.5;entryY=0;entryDx=0;entryDy=0;strokeColor=#FF6666;textShadow=1;" parent="1" source="6l5RSFHwxLsTZtFq_D9o-59" target="6l5RSFHwxLsTZtFq_D9o-63" edge="1">
          <mxGeometry relative="1" as="geometry" />
        </mxCell>
        <mxCell id="6l5RSFHwxLsTZtFq_D9o-71" value="No" style="edgeLabel;html=1;align=center;verticalAlign=middle;resizable=0;points=[];fontColor=#FF6666;textShadow=0;" parent="6l5RSFHwxLsTZtFq_D9o-64" vertex="1" connectable="0">
          <mxGeometry x="-0.125" relative="1" as="geometry">
            <mxPoint x="8" y="2" as="offset" />
          </mxGeometry>
        </mxCell>
        <mxCell id="6l5RSFHwxLsTZtFq_D9o-59" value="Inner Join like" style="strokeWidth=1;html=1;shape=mxgraph.flowchart.decision;whiteSpace=wrap;rounded=0;fillColor=#f5f5f5;strokeColor=#666666;gradientColor=#b3b3b3;textShadow=1;" parent="1" vertex="1">
          <mxGeometry x="-1053" y="443" width="152" height="70" as="geometry" />
        </mxCell>
        <mxCell id="6l5RSFHwxLsTZtFq_D9o-60" value="Cartesian Product" style="rounded=0;whiteSpace=wrap;html=1;absoluteArcSize=1;arcSize=14;strokeWidth=1;fillColor=#f5f5f5;strokeColor=#666666;gradientColor=#b3b3b3;textShadow=1;" parent="1" vertex="1">
          <mxGeometry x="-1360" y="458" width="230" height="40" as="geometry" />
        </mxCell>
        <mxCell id="6l5RSFHwxLsTZtFq_D9o-62" style="edgeStyle=orthogonalEdgeStyle;rounded=0;orthogonalLoop=1;jettySize=auto;html=1;exitX=0.5;exitY=1;exitDx=0;exitDy=0;exitPerimeter=0;entryX=0.5;entryY=0;entryDx=0;entryDy=0;entryPerimeter=0;strokeColor=#FF6666;textShadow=1;" parent="1" source="6l5RSFHwxLsTZtFq_D9o-55" target="6l5RSFHwxLsTZtFq_D9o-59" edge="1">
          <mxGeometry relative="1" as="geometry" />
        </mxCell>
        <mxCell id="6l5RSFHwxLsTZtFq_D9o-70" value="No" style="edgeLabel;html=1;align=center;verticalAlign=middle;resizable=0;points=[];fontColor=#FF6666;textShadow=0;" parent="6l5RSFHwxLsTZtFq_D9o-62" vertex="1" connectable="0">
          <mxGeometry x="-0.1333" y="-1" relative="1" as="geometry">
            <mxPoint x="9" as="offset" />
          </mxGeometry>
        </mxCell>
        <mxCell id="6l5RSFHwxLsTZtFq_D9o-63" value="Broadcast Nested Loop Join" style="rounded=0;whiteSpace=wrap;html=1;absoluteArcSize=1;arcSize=14;strokeWidth=1;fillColor=#e51400;strokeColor=#B20000;fontColor=#ffffff;textShadow=1;" parent="1" vertex="1">
          <mxGeometry x="-1092" y="561" width="230" height="40" as="geometry" />
        </mxCell>
        <mxCell id="6l5RSFHwxLsTZtFq_D9o-74" value="Decision Flow for Join Strategy" style="text;html=1;align=center;verticalAlign=middle;resizable=0;points=[];autosize=1;strokeColor=none;fillColor=none;fontSize=18;fontStyle=1;textShadow=1;" parent="1" vertex="1">
          <mxGeometry x="-1360" y="19" width="270" height="40" as="geometry" />
        </mxCell>
        <mxCell id="EjIdmnjUTFpmQ6ZbMCta-2" value="&lt;div&gt;&lt;b&gt;Factors affecting Spark Join Strategy:&lt;/b&gt;&lt;/div&gt;&lt;ul&gt;&lt;li&gt;Data Size&lt;/li&gt;&lt;li&gt;Join Hint&lt;/li&gt;&lt;li&gt;Type of Join&lt;/li&gt;&lt;li&gt;Sortability of rows&lt;/li&gt;&lt;/ul&gt;&lt;div&gt;&lt;br&gt;&lt;/div&gt;" style="text;html=1;align=left;verticalAlign=middle;resizable=0;points=[];autosize=1;strokeColor=default;fillColor=none;" vertex="1" parent="1">
          <mxGeometry x="-533" y="35" width="240" height="120" as="geometry" />
        </mxCell>
      </root>
    </mxGraphModel>
  </diagram>
</mxfile>
